<?xml version="1.0" standalone="no"?>
<svg style="background: #fff" xmlns="http://www.w3.org/2000/svg" xmlns:xlink="http://www.w3.org/1999/xlink" version="1.1" width="212px" height="122px" viewBox="-0.5 -0.5 212 122"><defs><style>* {margin: 0px; padding: 0px;}</style></defs><g><rect x="0" y="0" width="100" height="20" rx="1.4" ry="1.4" fill="#99ff99" stroke="#000000" pointer-events="none"/><g fill="#000000" font-family="Helvetica" text-anchor="middle" font-size="12px"><text x="49.5" y="13.5">_mark:markOop</text></g><path d="M 121 10 L 175 10 L 175 16.67 L 193 16.67 L 193 13.33 L 211 20 L 193 26.67 L 193 23.33 L 175 23.33 L 175 30 L 121 30 Z" fill="#99ccff" stroke="#000000" stroke-miterlimit="10" transform="rotate(180,166,20)" pointer-events="none"/><g fill="#FFFFFF" font-family="Helvetica" text-anchor="end" font-size="12px"><text x="207.93" y="23.5">对象头</text></g><path d="M 121 61 L 175 61 L 175 67.67 L 193 67.67 L 193 64.33 L 211 71 L 193 77.67 L 193 74.33 L 175 74.33 L 175 81 L 121 81 Z" fill="#99ccff" stroke="#000000" stroke-miterlimit="10" transform="rotate(180,166,71)" pointer-events="none"/><g fill="#FFFFFF" font-family="Helvetica" text-anchor="end" font-size="12px"><text x="207.93" y="74.5">实例数据</text></g><path d="M 121 101 L 175 101 L 175 107.67 L 193 107.67 L 193 104.33 L 211 111 L 193 117.67 L 193 114.33 L 175 114.33 L 175 121 L 121 121 Z" fill="#99ccff" stroke="#000000" stroke-miterlimit="10" transform="rotate(180,166,111)" pointer-events="none"/><g fill="#FFFFFF" font-family="Helvetica" text-anchor="end" font-size="12px"><text x="207.93" y="114.5">对齐填充</text></g><rect x="0" y="20" width="100" height="20" rx="1.4" ry="1.4" fill="#ffff99" stroke="#000000" pointer-events="none"/><g fill="#000000" font-family="Helvetica" text-anchor="middle" font-size="12px"><text x="49.5" y="33.5">_klass:klassOop</text></g><rect x="0" y="41" width="100" height="60" rx="4.2" ry="4.2" fill="#3399ff" stroke="#000000" pointer-events="none"/><g fill="#000000" font-family="Helvetica" text-anchor="middle" font-size="12px"><text x="49.5" y="60.5">...</text><text x="49.5" y="74.5">Instance Data</text><text x="49.5" y="88.5">...</text></g><rect x="0" y="101" width="100" height="20" rx="1.4" ry="1.4" fill="#ffff99" stroke="#000000" pointer-events="none"/><g fill="#000000" font-family="Helvetica" text-anchor="middle" font-size="12px"><text x="49.5" y="114.5">Padding</text></g><path d="M 121 0 L 116 0 Q 111 0 111 10 L 111 15 Q 111 20 106 20 L 103.5 20 Q 101 20 106 20 L 108.5 20 Q 111 20 111 30 L 111 35 Q 111 40 116 40 L 121 40" fill="none" stroke="#0066cc" stroke-miterlimit="10" transform="rotate(180,111,20)" pointer-events="none"/><path d="M 121 41 L 116 41 Q 111 41 111 51 L 111 61 Q 111 71 106 71 L 103.5 71 Q 101 71 106 71 L 108.5 71 Q 111 71 111 81 L 111 91 Q 111 101 116 101 L 121 101" fill="none" stroke="#0066cc" stroke-miterlimit="10" transform="rotate(180,111,71)" pointer-events="none"/><path d="M 121 101 L 116 101 Q 111 101 111 106 L 111 108.5 Q 111 111 106 111 L 103.5 111 Q 101 111 106 111 L 108.5 111 Q 111 111 111 116 L 111 118.5 Q 111 121 116 121 L 121 121" fill="none" stroke="#0066cc" stroke-miterlimit="10" transform="rotate(180,111,111)" pointer-events="none"/></g></svg>