<?xml version="1.0" standalone="no"?>
<svg style="background: #fff" xmlns="http://www.w3.org/2000/svg" xmlns:xlink="http://www.w3.org/1999/xlink" version="1.1" width="212px" height="141px" viewBox="-0.5 -0.5 212 141"><defs><style>* {margin: 0px; padding: 0px;}</style></defs><g><rect x="0" y="0" width="100" height="20" rx="1.4" ry="1.4" fill="#99ff99" stroke="#000000" pointer-events="none"/><g fill="#000000" font-family="Helvetica" text-anchor="middle" font-size="12px"><text x="49.5" y="13.5">_mark:markOop</text></g><path d="M 121 20 L 175 20 L 175 26.67 L 193 26.67 L 193 23.33 L 211 30 L 193 36.67 L 193 33.33 L 175 33.33 L 175 40 L 121 40 Z" fill="#99ccff" stroke="#000000" stroke-miterlimit="10" transform="rotate(180,166,30)" pointer-events="none"/><g fill="#FFFFFF" font-family="Helvetica" text-anchor="end" font-size="12px"><text x="207.93" y="33.5">对象头</text></g><path d="M 121 80 L 175 80 L 175 86.67 L 193 86.67 L 193 83.33 L 211 90 L 193 96.67 L 193 93.33 L 175 93.33 L 175 100 L 121 100 Z" fill="#99ccff" stroke="#000000" stroke-miterlimit="10" transform="rotate(180,166,90)" pointer-events="none"/><g fill="#FFFFFF" font-family="Helvetica" text-anchor="end" font-size="12px"><text x="207.93" y="93.5">实例数据</text></g><path d="M 121 120 L 175 120 L 175 126.67 L 193 126.67 L 193 123.33 L 211 130 L 193 136.67 L 193 133.33 L 175 133.33 L 175 140 L 121 140 Z" fill="#99ccff" stroke="#000000" stroke-miterlimit="10" transform="rotate(180,166,130)" pointer-events="none"/><g fill="#FFFFFF" font-family="Helvetica" text-anchor="end" font-size="12px"><text x="207.93" y="133.5">对齐填充</text></g><rect x="0" y="20" width="100" height="20" rx="1.4" ry="1.4" fill="#ffff99" stroke="#000000" pointer-events="none"/><g fill="#000000" font-family="Helvetica" text-anchor="middle" font-size="12px"><text x="49.5" y="33.5">_klass:klassOop</text></g><rect x="0" y="40" width="100" height="20" rx="1.4" ry="1.4" fill="#99ff99" stroke="#000000" pointer-events="none"/><g fill="#000000" font-family="Helvetica" text-anchor="middle" font-size="12px"><text x="49.5" y="53.5">_length:int</text></g><rect x="0" y="60" width="100" height="60" rx="4.2" ry="4.2" fill="#3399ff" stroke="#000000" pointer-events="none"/><g fill="#000000" font-family="Helvetica" text-anchor="middle" font-size="12px"><text x="49.5" y="79.5">...</text><text x="49.5" y="93.5">Instance Data</text><text x="49.5" y="107.5">...</text></g><rect x="0" y="120" width="100" height="20" rx="1.4" ry="1.4" fill="#ffff99" stroke="#000000" pointer-events="none"/><g fill="#000000" font-family="Helvetica" text-anchor="middle" font-size="12px"><text x="49.5" y="133.5">Padding</text></g><path d="M 121 0 L 116 0 Q 111 0 111 10 L 111 20 Q 111 30 106 30 L 103.5 30 Q 101 30 106 30 L 108.5 30 Q 111 30 111 40 L 111 50 Q 111 60 116 60 L 121 60" fill="none" stroke="#0066cc" stroke-miterlimit="10" transform="rotate(180,111,30)" pointer-events="none"/><path d="M 121 60 L 116 60 Q 111 60 111 70 L 111 80 Q 111 90 106 90 L 103.5 90 Q 101 90 106 90 L 108.5 90 Q 111 90 111 100 L 111 110 Q 111 120 116 120 L 121 120" fill="none" stroke="#0066cc" stroke-miterlimit="10" transform="rotate(180,111,90)" pointer-events="none"/><path d="M 121 120 L 116 120 Q 111 120 111 125 L 111 127.5 Q 111 130 106 130 L 103.5 130 Q 101 130 106 130 L 108.5 130 Q 111 130 111 135 L 111 137.5 Q 111 140 116 140 L 121 140" fill="none" stroke="#0066cc" stroke-miterlimit="10" transform="rotate(180,111,130)" pointer-events="none"/></g></svg>